<svg width="166" height="118" viewBox="0 0 166 118" fill="none" xmlns="http://www.w3.org/2000/svg">
<path d="M166 107.923C166 113.464 128.84 117.956 83 117.956C37.1604 117.956 0 113.464 0 107.923C0 102.382 37.1604 97.8901 83 97.8901C128.84 97.8901 166 102.382 166 107.923Z" fill="#C4C4C4"/>
<path fill-rule="evenodd" clip-rule="evenodd" d="M83 94.2417C128.84 94.2417 166 89.3414 166 83.2966V108.835H0V83.2966C0 89.3414 37.1604 94.2417 83 94.2417Z" fill="#C4C4C4"/>
<path d="M165 83.9451C165 84.1575 164.821 84.6346 163.772 85.3103C162.778 85.951 161.247 86.6063 159.18 87.2507C155.061 88.535 149.049 89.7053 141.559 90.693C126.594 92.6663 105.89 93.8901 83 93.8901C60.1098 93.8901 39.4055 92.6663 24.4409 90.693C16.9513 89.7053 10.9395 88.535 6.82019 87.2507C4.7534 86.6063 3.22216 85.951 2.22795 85.3103C1.17948 84.6346 1 84.1575 1 83.9451C1 83.7326 1.17948 83.2555 2.22795 82.5798C3.22216 81.9391 4.7534 81.2838 6.82019 80.6394C10.9395 79.3552 16.9513 78.1848 24.4409 77.1972C39.4055 75.2238 60.1098 74 83 74C105.89 74 126.594 75.2238 141.559 77.1972C149.049 78.1848 155.061 79.3552 159.18 80.6394C161.247 81.2838 162.778 81.9391 163.772 82.5798C164.821 83.2555 165 83.7326 165 83.9451Z" stroke="#C4C4C4" stroke-width="2"/>
<path d="M166 71.9231C166 77.4642 128.84 81.9561 83 81.9561C37.1604 81.9561 0 77.4642 0 71.9231C0 66.3821 37.1604 61.8901 83 61.8901C128.84 61.8901 166 66.3821 166 71.9231Z" fill="#C4C4C4"/>
<path fill-rule="evenodd" clip-rule="evenodd" d="M83 58.2417C128.84 58.2417 166 53.3414 166 47.2966V72.8351H0V47.2966C0 53.3414 37.1604 58.2417 83 58.2417Z" fill="#C4C4C4"/>
<path d="M165 47.9451C165 48.1575 164.821 48.6346 163.772 49.3103C162.778 49.951 161.247 50.6063 159.18 51.2507C155.061 52.535 149.049 53.7053 141.559 54.693C126.594 56.6663 105.89 57.8901 83 57.8901C60.1098 57.8901 39.4055 56.6663 24.4409 54.693C16.9513 53.7053 10.9395 52.535 6.82019 51.2507C4.7534 50.6063 3.22216 49.951 2.22795 49.3103C1.17948 48.6346 1 48.1575 1 47.9451C1 47.7326 1.17948 47.2555 2.22795 46.5798C3.22216 45.9391 4.7534 45.2838 6.82019 44.6394C10.9395 43.3552 16.9513 42.1848 24.4409 41.1972C39.4055 39.2238 60.1098 38 83 38C105.89 38 126.594 39.2238 141.559 41.1972C149.049 42.1848 155.061 43.3552 159.18 44.6394C161.247 45.2838 162.778 45.9391 163.772 46.5798C164.821 47.2555 165 47.7326 165 47.9451Z" stroke="#C4C4C4" stroke-width="2"/>
<path d="M166 34.9231C166 40.4642 128.84 44.9561 83 44.9561C37.1604 44.9561 0 40.4642 0 34.9231C0 29.3821 37.1604 24.8901 83 24.8901C128.84 24.8901 166 29.3821 166 34.9231Z" fill="#C4C4C4"/>
<path fill-rule="evenodd" clip-rule="evenodd" d="M83 21.2417C128.84 21.2417 166 16.3414 166 10.2966V35.8351H0V10.2966C0 16.3414 37.1604 21.2417 83 21.2417Z" fill="#C4C4C4"/>
<path d="M165 10.9451C165 11.1575 164.821 11.6346 163.772 12.3103C162.778 12.951 161.247 13.6063 159.18 14.2507C155.061 15.535 149.049 16.7053 141.559 17.693C126.594 19.6663 105.89 20.8901 83 20.8901C60.1098 20.8901 39.4055 19.6663 24.4409 17.693C16.9513 16.7053 10.9395 15.535 6.82019 14.2507C4.7534 13.6063 3.22216 12.951 2.22795 12.3103C1.17948 11.6346 1 11.1575 1 10.9451C1 10.7326 1.17948 10.2555 2.22795 9.57983C3.22216 8.93914 4.7534 8.2838 6.82019 7.63943C10.9395 6.35516 16.9513 5.18479 24.4409 4.19715C39.4055 2.22379 60.1098 1 83 1C105.89 1 126.594 2.22379 141.559 4.19715C149.049 5.18479 155.061 6.35516 159.18 7.63943C161.247 8.2838 162.778 8.93914 163.772 9.57983C164.821 10.2555 165 10.7326 165 10.9451Z" stroke="#C4C4C4" stroke-width="2"/>
</svg>
