<svg width="64" height="64" viewBox="0 0 64 64" fill="none" xmlns="http://www.w3.org/2000/svg">
<path d="M18 47.0833V26.9167C18 26.9167 18 26 20 26C22 26 22 26.9167 22 26.9167V47.0833C22 47.0833 22 48 20 48C18 48 18 47.0833 18 47.0833Z" fill="#010101" stroke="black"/>
<path d="M34 47.0833V26.9167C34 26.9167 34 26 36 26C38 26 38 26.9167 38 26.9167V47.0833C38 47.0833 38 48 36 48C34 48 34 47.0833 34 47.0833Z" fill="#010101" stroke="black"/>
<path d="M26 47.0833V26.9167C26 26.9167 26 26 28 26C30 26 30 26.9167 30 26.9167V47.0833C30 47.0833 30 48 28 48C26 48 26 47.0833 26 47.0833Z" fill="black" stroke="black"/>
<path d="M42 47.0833V26.9167C42 26.9167 42 26 44 26C46 26 46 26.9167 46 26.9167V47.0833C46 47.0833 46 48 44 48C42 48 42 47.0833 42 47.0833Z" fill="black" stroke="black"/>
<path d="M30.8862 6.74675C31.56 6.29499 32.44 6.29499 33.1138 6.74675L53.3862 20.3388C55.0275 21.4393 54.2485 24 52.2724 24H11.7276C9.75148 24 8.97249 21.4393 10.6138 20.3388L30.8862 6.74675Z" fill="#0B0B0B"/>
<path d="M12.7429 51.1509C13.0722 50.4485 13.7779 50 14.5537 50H49.4463C50.2221 50 50.9278 50.4485 51.2571 51.1509L53.332 55.5754C53.6429 56.2386 53.159 57 52.4266 57H11.5734C10.841 57 10.3571 56.2386 10.668 55.5754L12.7429 51.1509Z" fill="black"/>
</svg>
