<svg width="174" height="159" viewBox="0 0 174 159" fill="none" xmlns="http://www.w3.org/2000/svg">
<path fill-rule="evenodd" clip-rule="evenodd" d="M0 5C0 2.23858 2.23858 0 5 0H74.875C77.6364 0 79.875 2.23858 79.875 5V81H78V11C78 8.23858 75.7614 6 73 6H7C4.23858 6 2 8.23858 2 11V129C2 131.761 4.23858 134 7 134H38V137H32V139H38V142H5C2.23858 142 0 139.761 0 137V5ZM18 3.5C18 4.32843 17.3284 5 16.5 5C15.6716 5 15 4.32843 15 3.5C15 2.67157 15.6716 2 16.5 2C17.3284 2 18 2.67157 18 3.5Z" fill="#D3D3D3"/>
<path fill-rule="evenodd" clip-rule="evenodd" d="M32 153.875C32 156.636 34.2386 158.875 37 158.875H169C171.761 158.875 174 156.636 174 153.875V84C174 81.2386 171.761 79 169 79L37 79C34.2386 79 32 81.2386 32 84L32 153.875ZM38 151.875C38 154.636 40.2386 156.875 43 156.875H161C163.761 156.875 166 154.636 166 151.875V85.875C166 83.1136 163.761 80.875 161 80.875L43 80.875C40.2386 80.875 38 83.1136 38 85.875L38 151.875Z" fill="#D3D3D3"/>
<path d="M170 126.875V109.875" stroke="#958F8F" stroke-width="2"/>
<circle cx="35.5" cy="142.375" r="1.5" transform="rotate(-90 35.5 142.375)" fill="#958F8F"/>
</svg>
