<svg id="Layer_1" data-name="Layer 1" xmlns="http://www.w3.org/2000/svg" viewBox="0 0 511 511"><defs><style>.cls-1,.cls-2,.cls-3{fill:none;}.cls-2,.cls-3{stroke:#000;stroke-width:32px;}.cls-3{stroke-linecap:round;}</style></defs><rect class="cls-1" width="511" height="511"/><path class="cls-2" d="M80,183.49l175.7-117.3a1,1,0,0,1,1.11,0L432,183.49a1,1,0,0,1-.55,1.83H80.55A1,1,0,0,1,80,183.49Z" transform="translate(-0.5 -0.5)"/><path d="M209,348V232c0-7.54,7.16-13.65,16-13.65h0c8.84,0,16,6.11,16,13.65V348c0,7.54-7.16,13.65-16,13.65h0C216.16,361.61,209,355.5,209,348Z" transform="translate(-0.5 -0.5)"/><path d="M147,348V232c0-7.54,7.16-13.65,16-13.65h0c8.84,0,16,6.11,16,13.65V348c0,7.54-7.16,13.65-16,13.65h0C154.16,361.61,147,355.5,147,348Z" transform="translate(-0.5 -0.5)"/><path d="M271,348V232c0-7.54,7.16-13.65,16-13.65h0c8.84,0,16,6.11,16,13.65V348c0,7.54-7.16,13.65-16,13.65h0C278.16,361.61,271,355.5,271,348Z" transform="translate(-0.5 -0.5)"/><path d="M333,348V232c0-7.54,7.16-13.65,16-13.65h0c8.84,0,16,6.11,16,13.65V348c0,7.54-7.16,13.65-16,13.65h0C340.16,361.61,333,355.5,333,348Z" transform="translate(-0.5 -0.5)"/><line class="cls-3" x1="393.08" y1="394.11" x2="117.92" y2="394.11"/><line class="cls-3" x1="86.59" y1="445.48" x2="424.41" y2="445.48"/></svg>